# xmcd CD database file
#
# Track frame offsets:
#	150
#	15220
#	30369
#	45857
#	58880
#	73830
#	92160
#	110558
#	125199
#	138018
#	153143
#	167333
#	182468
#	197119
#
# Disc length: 2894 seconds
#
# Revision: 2
# Processed by: cddbd v1.4b42PL1 Copyright (c) Steve Scherf et al.
# Submitted via: CDex 1.40Beta8
#
DISCID=ab0b4c0e
DTITLE=Mutabor - Jaja
DYEAR=2001
DGENRE=Folk-Rock
TTITLE0=Weil es jeder tut
TTITLE1=Ich will weg
TTITLE2=Ego
TTITLE3=Das Eine
TTITLE4=Jaja
TTITLE5=Das ist Liebe
TTITLE6=Fragezeichen
TTITLE7=Alles im Griff
TTITLE8=Nebenwirkung
TTITLE9=Süße Lust
TTITLE10=Kelch
TTITLE11=Lisa
TTITLE12=So gut
TTITLE13=Maria Huana
EXTD=YEAR: 2001 ID3G: 81
EXTT0=
EXTT1=
EXTT2=
EXTT3=
EXTT4=
EXTT5=
EXTT6=
EXTT7=
EXTT8=
EXTT9=
EXTT10=
EXTT11=
EXTT12=
EXTT13=
PLAYORDER=
